<svg xmlns="http://www.w3.org/2000/svg" viewBox="0 0 500 500">
  <path d="M250 100c-15 0-27.5 5-37.5 15s-15 22.5-15 37.5v195c0 15 5 27.5 15 37.5s22.5 15 37.5 15 27.5-5 37.5-15 15-22.5 15-37.5v-195c0-15-5-27.5-15-37.5s-22.5-15-37.5-15zm-150 0c-15 0-27.5 5-37.5 15s-15 22.5-15 37.5v195c0 15 5 27.5 15 37.5s22.5 15 37.5 15 27.5-5 37.5-15 15-22.5 15-37.5v-195c0-15-5-27.5-15-37.5s-22.5-15-37.5-15zm300 0c-15 0-27.5 5-37.5 15s-15 22.5-15 37.5v195c0 15 5 27.5 15 37.5s22.5 15 37.5 15 27.5-5 37.5-15 15-22.5 15-37.5v-195c0-15-5-27.5-15-37.5s-22.5-15-37.5-15z"/>
</svg>